# xmcd
# 
# Track frame offsets:
#     150
#     20646
#     41901
#     60262
# 
# Disc length: 989
# 
# Revision: 0
# Processed by: cddbd v1.5.2PL0 Copyright (c) Steve Scherf et al.
# Submitted via: BonkEnc v1.0.8
# 
DISCID=2d03db04
DTITLE=Diablo Boulevard - Scared and Undefeated
DYEAR=0
DGENRE=Other
TTITLE0=Scared and Undefeated
TTITLE1=Sweet Enemy Mine
TTITLE2=Without
TTITLE3=My Sin
EXTD=
EXTT0=
EXTT1=
EXTT2=
EXTT3=
PLAYORDER=
